<svg width="14" height="14" viewBox="0 0 14 14" fill="none" xmlns="http://www.w3.org/2000/svg">
<g clip-path="url(#clip0_209_173)">
<path d="M9.87079 7.84991L6.99992 10.5L4.12904 7.84991C2.52984 8.87279 1.45825 10.7185 1.45825 12.8333H12.5416C12.5416 10.7185 11.47 8.87279 9.87079 7.84991Z" fill="white"/>
<path d="M7 8.16669C8.03542 8.16669 8.96262 7.7146 9.60342 7.00002C10.159 6.38052 10.5 5.56444 10.5 4.66669C10.5 2.73381 8.93287 1.16669 7 1.16669C5.06712 1.16669 3.5 2.73381 3.5 4.66669C3.5 5.56444 3.84096 6.38052 4.39658 7.00002C5.03738 7.7146 5.96458 8.16669 7 8.16669Z" fill="white"/>
</g>
<defs>
<clipPath id="clip0_209_173">
<rect width="14" height="14" fill="white"/>
</clipPath>
</defs>
</svg>
