<svg width="80" height="60" viewBox="0 0 80 60" fill="none" xmlns="http://www.w3.org/2000/svg">
<g clip-path="url(#clip0_235_18)">
<path d="M0 0H26.6625V60H0V0Z" fill="#007A5E"/>
<path d="M26.6625 0H53.3375V60H26.6625V0Z" fill="#CE1126"/>
<path d="M53.3375 0H80V60H53.3375V0Z" fill="#FCD116"/>
<path d="M40.0001 22.8889L37.7778 29.6445L41.1556 30.8L40.0001 22.8889Z" fill="#FCD116"/>
<path d="M40.0001 22.8889L42.2223 29.6445L38.8445 30.8L40.0001 22.8889Z" fill="#FCD116"/>
<path d="M46.7631 27.8025L39.6515 27.7767L39.5963 31.3462L46.7631 27.8025Z" fill="#FCD116"/>
<path d="M46.7631 27.8026L41.0249 32.0036L38.8821 29.1482L46.7631 27.8026Z" fill="#FCD116"/>
<path d="M44.1798 35.753L42.0069 28.9815L38.595 30.032L44.1798 35.753Z" fill="#FCD116"/>
<path d="M44.1799 35.753L38.4113 31.5939L40.4647 28.6736L44.1799 35.753Z" fill="#FCD116"/>
<path d="M35.8202 35.753L41.5889 31.5939L39.5354 28.6736L35.8202 35.753Z" fill="#FCD116"/>
<path d="M35.8203 35.753L37.9933 28.9815L41.4052 30.032L35.8203 35.753Z" fill="#FCD116"/>
<path d="M33.237 27.8026L38.9752 32.0036L41.118 29.1482L33.237 27.8026Z" fill="#FCD116"/>
<path d="M33.237 27.8025L40.3486 27.7767L40.4038 31.3462L33.237 27.8025Z" fill="#FCD116"/>
</g>
<defs>
<clipPath id="clip0_235_18">
<rect width="80" height="60" fill="white"/>
</clipPath>
</defs>
</svg>
