<svg width="14" height="14" viewBox="0 0 14 14" fill="none" xmlns="http://www.w3.org/2000/svg">
<g clip-path="url(#clip0_209_171)">
<path d="M8.05997 10.6931L10.6873 8.0675L5.93314 3.31333L3.30755 5.94067L8.05997 10.6931ZM6.30647 2.55908L11.4398 7.69242C11.5366 7.7875 11.5973 7.91933 11.5973 8.06575C11.5973 8.21217 11.5372 8.344 11.4404 8.43908L8.43272 11.4468C8.33589 11.5389 8.20405 11.5955 8.05939 11.5955C7.91472 11.5955 7.78289 11.5389 7.68605 11.4462L2.55272 6.31283C2.45589 6.21775 2.39522 6.08592 2.39522 5.9395C2.39522 5.79308 2.4553 5.66125 2.55214 5.56617L5.5598 2.5585C5.65664 2.46633 5.78847 2.40975 5.93314 2.40975C6.0778 2.40975 6.20964 2.46633 6.30647 2.55908ZM13.6932 7.85167L6.15772 0.307417C5.96405 0.11725 5.69864 0 5.4058 0C5.11297 0 4.84755 0.11725 4.65389 0.307417L3.60739 1.35333C3.88564 1.64033 4.05655 2.03233 4.05655 2.46458C4.05655 3.34717 3.3408 4.06292 2.45822 4.06292C2.02655 4.06292 1.63455 3.89142 1.34697 3.61317L1.34755 3.61375L0.308637 4.66025C0.118471 4.85392 0.0012207 5.11933 0.0012207 5.41217C0.0012207 5.705 0.118471 5.97042 0.308637 6.16408L7.84472 13.6926C8.03839 13.8828 8.3038 14 8.59664 14C8.88947 14 9.15489 13.8828 9.34855 13.6926L10.3875 12.6537C10.0871 12.3626 9.90039 11.9554 9.90039 11.5051C9.90039 10.6225 10.6161 9.90675 11.4987 9.90675C11.9496 9.90675 12.3568 10.0934 12.6473 10.3938L12.6479 10.3944L13.6944 9.3555C13.8846 9.16183 14.0018 8.89642 14.0018 8.60358C14.0018 8.31075 13.8846 8.04533 13.6944 7.85167H13.6932Z" fill="white"/>
</g>
<defs>
<clipPath id="clip0_209_171">
<rect width="14" height="14" fill="white" transform="matrix(1 0 0 -1 0 14)"/>
</clipPath>
</defs>
</svg>
