<svg width="81" height="61" viewBox="0 0 81 61" fill="none" xmlns="http://www.w3.org/2000/svg">
<g clip-path="url(#clip0_235_2)">
<path d="M0.64563 0.347534H80.6456V60.3475H0.64563V0.347534Z" fill="#012169"/>
<path d="M10.0206 0.347534L40.5206 22.9725L70.8956 0.347534H80.6456V8.09753L50.6456 30.4725L80.6456 52.7225V60.3475H70.6456L40.6456 37.9725L10.7706 60.3475H0.64563V52.8475L30.5206 30.5975L0.64563 8.34753V0.347534H10.0206Z" fill="white"/>
<path d="M53.6456 35.4725L80.6456 55.3475V60.3475L46.7706 35.4725H53.6456ZM30.6456 37.9725L31.3956 42.3475L7.39563 60.3475H0.64563L30.6456 37.9725ZM80.6456 0.347534V0.722534L49.5206 24.2225L49.7706 18.7225L74.3956 0.347534H80.6456ZM0.64563 0.347534L30.5206 22.3475H23.0206L0.64563 5.59753V0.347534Z" fill="#C8102E"/>
<path d="M30.7706 0.347534V60.3475H50.7706V0.347534H30.7706ZM0.64563 20.3475V40.3475H80.6456V20.3475H0.64563Z" fill="white"/>
<path d="M0.64563 24.4725V36.4725H80.6456V24.4725H0.64563ZM34.7706 0.347534V60.3475H46.7706V0.347534H34.7706Z" fill="#C8102E"/>
</g>
<defs>
<clipPath id="clip0_235_2">
<rect width="80" height="60" fill="white" transform="translate(0.64563 0.347534)"/>
</clipPath>
</defs>
</svg>
